<svg width="11" height="7" viewBox="0 0 11 7" fill="none" xmlns="http://www.w3.org/2000/svg">
<path d="M10.365 0.735598C10.2897 0.660227 10.2003 0.600435 10.1019 0.55964C10.0034 0.518846 9.89795 0.497849 9.7914 0.497849C9.68486 0.497849 9.57936 0.518846 9.48093 0.55964C9.38251 0.600435 9.29308 0.660227 9.21778 0.735598L5.59945 4.35393C5.57915 4.37411 5.55169 4.38543 5.52307 4.38543C5.49445 4.38543 5.46699 4.37411 5.4467 4.35393L1.82836 0.735598C1.75306 0.660227 1.66363 0.600435 1.56521 0.55964C1.46678 0.518846 1.36128 0.497849 1.25474 0.497849C1.14819 0.497849 1.04269 0.518846 0.944265 0.55964C0.845839 0.600435 0.756418 0.660227 0.681112 0.735598L0.680028 0.736681C0.527939 0.888841 0.442503 1.09517 0.442503 1.31031C0.442503 1.52544 0.527939 1.73177 0.680028 1.88393L5.14011 6.34401C5.24183 6.4453 5.37953 6.50216 5.52307 6.50216C5.66661 6.50216 5.80431 6.4453 5.90603 6.34401L10.3661 1.88393C10.5182 1.73177 10.6036 1.52544 10.6036 1.31031C10.6036 1.09517 10.5182 0.888841 10.3661 0.736681L10.365 0.735598V0.735598Z" fill="black"/>
</svg>
