<svg width="16" height="16" viewBox="0 0 16 16" fill="none" xmlns="http://www.w3.org/2000/svg">
<path d="M8 1.4416C10.136 1.4416 10.3888 1.4496 11.232 1.488C12.0128 1.524 12.436 1.6544 12.7184 1.7632C13.0912 1.9088 13.3584 2.0824 13.6384 2.3616C13.9184 2.6416 14.0912 2.9088 14.2368 3.2816C14.3456 3.564 14.4768 3.9872 14.512 4.7672C14.5504 5.6112 14.5584 5.8632 14.5584 8C14.5584 10.136 14.5504 10.3888 14.512 11.232C14.476 12.0128 14.3456 12.436 14.2368 12.7184C14.0912 13.0912 13.9176 13.3584 13.6384 13.6384C13.3584 13.9184 13.0912 14.0912 12.7184 14.2368C12.436 14.3464 12.0128 14.4768 11.2328 14.512C10.3896 14.5504 10.1368 14.5584 8 14.5584C5.864 14.5584 5.6104 14.5504 4.768 14.512C3.9872 14.476 3.564 14.3464 3.2816 14.2368C2.93407 14.1086 2.61969 13.9041 2.3616 13.6384C2.09589 13.3803 1.89141 13.0659 1.7632 12.7184C1.6536 12.436 1.5232 12.0128 1.488 11.2328C1.4496 10.3888 1.4416 10.1368 1.4416 8C1.4416 5.864 1.4496 5.6112 1.488 4.768C1.524 3.9872 1.6536 3.564 1.7632 3.2816C1.9088 2.9088 2.0824 2.6416 2.3616 2.3616C2.6416 2.0816 2.9088 1.9088 3.2816 1.7632C3.564 1.6544 3.9872 1.5232 4.7672 1.488C5.6112 1.4496 5.8632 1.4416 8 1.4416ZM8 0C5.8272 0 5.5552 0.0096 4.7016 0.048C3.8504 0.088 3.2688 0.2224 2.76 0.42C2.226 0.620699 1.74222 0.935485 1.3424 1.3424C0.935485 1.74222 0.620699 2.226 0.42 2.76C0.2224 3.2688 0.0872 3.8504 0.048 4.7016C0.0088 5.5552 0 5.8272 0 8C0 10.1728 0.0088 10.4448 0.048 11.2984C0.0872 12.1496 0.2224 12.7312 0.42 13.24C0.620699 13.774 0.935485 14.2578 1.3424 14.6576C1.74222 15.0645 2.226 15.3793 2.76 15.58C3.2688 15.7776 3.8504 15.9128 4.7016 15.952C5.5552 15.9912 5.8272 16 8 16C10.1728 16 10.4448 15.9912 11.2984 15.952C12.1496 15.9128 12.7312 15.7776 13.24 15.58C13.774 15.3793 14.2578 15.0645 14.6576 14.6576C15.0645 14.2578 15.3793 13.774 15.58 13.24C15.7776 12.7312 15.9128 12.1496 15.952 11.2984C15.9904 10.4448 16 10.1728 16 8C16 5.8272 15.9904 5.5552 15.952 4.7016C15.9128 3.8504 15.7776 3.2688 15.58 2.76C15.3793 2.226 15.0645 1.74222 14.6576 1.3424C14.2578 0.935485 13.774 0.620699 13.24 0.42C12.7312 0.2224 12.1496 0.0872 11.2984 0.048C10.4448 0.0096 10.1728 0 8 0ZM8 3.892C6.91049 3.892 5.8656 4.32481 5.09521 5.09521C4.32481 5.8656 3.892 6.91049 3.892 8C3.892 9.08951 4.32481 10.1344 5.09521 10.9048C5.8656 11.6752 6.91049 12.108 8 12.108C9.08951 12.108 10.1344 11.6752 10.9048 10.9048C11.6752 10.1344 12.108 9.08951 12.108 8C12.108 6.91049 11.6752 5.8656 10.9048 5.09521C10.1344 4.32481 9.08951 3.892 8 3.892ZM8 10.6664C7.29283 10.6664 6.61462 10.3855 6.11457 9.88543C5.61452 9.38538 5.3336 8.70717 5.3336 8C5.3336 7.29283 5.61452 6.61462 6.11457 6.11457C6.61462 5.61452 7.29283 5.3336 8 5.3336C8.70717 5.3336 9.38538 5.61452 9.88543 6.11457C10.3855 6.61462 10.6664 7.29283 10.6664 8C10.6664 8.70717 10.3855 9.38538 9.88543 9.88543C9.38538 10.3855 8.70717 10.6664 8 10.6664ZM13.2304 3.7296C13.2304 3.98421 13.1293 4.22839 12.9492 4.40842C12.7692 4.58846 12.525 4.6896 12.2704 4.6896C12.0158 4.6896 11.7716 4.58846 11.5916 4.40842C11.4115 4.22839 11.3104 3.98421 11.3104 3.7296C11.3104 3.47499 11.4115 3.23081 11.5916 3.05078C11.7716 2.87074 12.0158 2.7696 12.2704 2.7696C12.525 2.7696 12.7692 2.87074 12.9492 3.05078C13.1293 3.23081 13.2304 3.47499 13.2304 3.7296Z" fill="black"/>
</svg>
