<svg width="16" height="16" viewBox="0 0 16 16" fill="none" xmlns="http://www.w3.org/2000/svg">
<path d="M15.0969 9.87267V15.542H12.0542V10.2522C12.0542 8.92334 11.6142 8.01667 10.5137 8.01667C9.67285 8.01667 9.17241 8.62823 8.95285 9.21934C8.87197 9.43089 8.85152 9.72512 8.85152 10.0202V15.542H5.80885C5.80885 15.542 5.84974 6.58289 5.80885 5.65489H8.85152V7.05667L8.83108 7.08867H8.85152V7.05667C9.25597 6.38378 9.97774 5.42289 11.5937 5.42289C13.5955 5.42289 15.0969 6.83534 15.0969 9.87267ZM2.62574 0.888672C1.58397 0.888672 0.903076 1.62645 0.903076 2.59623C0.903076 3.54556 1.56441 4.31623 2.58485 4.31623H2.6053C3.66663 4.31623 4.32619 3.54556 4.32619 2.59623C4.30663 1.62645 3.66663 0.888672 2.62574 0.888672ZM1.08441 15.542H4.12619V5.65489H1.08441V15.542Z" fill="black"/>
</svg>
