<svg width="76" height="24" viewBox="0 0 76 24" fill="none" xmlns="http://www.w3.org/2000/svg">
<path d="M4.438 22.8785V9.48764L14.097 22.8785H17.921V1.22182H13.455V14.5822L3.825 1.22182H0V22.8796H4.438V22.8785ZM26.788 23.2145C28.658 23.2145 30.026 22.1782 30.585 21.3535V22.8785H34.8V7.62655H30.585V9.15164C30.026 8.328 28.658 7.29055 26.788 7.29055C23.131 7.29055 20.312 10.9211 20.312 15.2531C20.312 19.584 23.132 23.2145 26.788 23.2145ZM27.738 19.0353C25.839 19.0353 24.555 17.4491 24.555 15.2531C24.555 13.056 25.839 11.4698 27.737 11.4698C29.635 11.4698 30.92 13.056 30.92 15.2531C30.92 17.4491 29.635 19.0353 27.737 19.0353H27.738ZM46.039 23.2145C49.696 23.2145 52.516 19.584 52.516 15.2531C52.516 10.9211 49.696 7.29055 46.039 7.29055C44.169 7.29055 42.801 8.328 42.243 9.15164V0H38.028V22.8785H42.243V21.3535C42.801 22.1771 44.169 23.2145 46.039 23.2145ZM45.09 19.0353C43.192 19.0353 41.908 17.4491 41.908 15.2531C41.908 13.056 43.192 11.4698 45.09 11.4698C46.988 11.4698 48.273 13.056 48.273 15.2531C48.273 17.4491 46.988 19.0353 45.09 19.0353ZM59.122 22.8785V0H54.906V22.8785H59.122ZM67.989 23.2145C69.859 23.2145 71.227 22.1782 71.785 21.3535V22.8785H76V7.62655H71.785V9.15164C71.227 8.328 69.859 7.29055 67.989 7.29055C64.332 7.29055 61.512 10.9211 61.512 15.2531C61.512 19.584 64.332 23.2145 67.989 23.2145ZM68.938 19.0353C67.039 19.0353 65.755 17.4491 65.755 15.2531C65.755 13.056 67.039 11.4698 68.938 11.4698C70.836 11.4698 72.12 13.056 72.12 15.2531C72.12 17.4491 70.836 19.0353 68.938 19.0353Z" fill="#040062"/>
</svg>
