<svg width="16" height="14" viewBox="0 0 16 14" fill="none" xmlns="http://www.w3.org/2000/svg">
<path d="M16.5 1.657C15.8642 1.94245 15.1889 2.13023 14.497 2.214C15.2278 1.76896 15.7725 1.07401 16.03 0.258C15.356 0.663 14.61 0.958 13.816 1.116C13.4917 0.764243 13.098 0.483478 12.6599 0.291404C12.2217 0.09933 11.7484 0.000110553 11.27 0C9.344 0 7.782 1.582 7.782 3.534C7.782 3.811 7.813 4.081 7.872 4.34C4.974 4.192 2.404 2.785 0.683 0.647C0.372607 1.18771 0.209833 1.80053 0.211 2.424C0.211 3.65 0.827 4.732 1.763 5.365C1.20833 5.34765 0.666157 5.19598 0.183 4.923V4.968C0.183 6.68 1.385 8.109 2.98 8.433C2.46685 8.57532 1.92762 8.5962 1.405 8.494C1.849 9.898 3.137 10.92 4.664 10.948C3.94353 11.5226 3.11585 11.948 2.22924 12.1994C1.34263 12.4507 0.414842 12.523 -0.5 12.412C1.09006 13.4491 2.94763 14.0008 4.846 14C11.262 14 14.77 8.614 14.77 3.944C14.77 3.791 14.766 3.638 14.76 3.487C15.4438 2.98485 16.0329 2.36523 16.5 1.657Z" fill="black"/>
</svg>
