<svg width="46" height="60" fill="none" xmlns="http://www.w3.org/2000/svg"><path fill-rule="evenodd" clip-rule="evenodd" d="M30.466 59.41a1.72 1.72 0 01-.162.064l-.04.01a1.54 1.54 0 01-.458.07 1.563 1.563 0 01-1.267-.6 1.637 1.637 0 01-.189-.288L17.84 40.464v6.084c0 .514-.244.996-.65 1.301l-.162.106L2.95 56.083a1.626 1.626 0 01-2.438-1.408V10.01c0-.669.357-1.164.838-1.424L15.403.476a1.626 1.626 0 012.218.592l10.553 18.207v-9.264c0-.515.246-.996.654-1.301l.16-.106L43.067.476a1.626 1.626 0 012.438 1.408v47.915c0 .58-.31 1.116-.813 1.407l-13.996 8.082c-.07.045-.144.085-.22.119v-.001l-.01.005zM42.254 4.7l-10.828 6.25v44.16l10.828-6.252V4.699zM15.62 4.102L4.356 10.605 28.174 51.86v-26.1L15.623 4.102h-.002zM3.761 16.079v35.78l10.828-6.251V34.833l-1.92-3.324L3.762 16.08v-.002z" fill="#040062"/></svg>